<svg width="318" height="122" viewBox="0 0 318 122" fill="none" xmlns="http://www.w3.org/2000/svg">
<g filter="url(#filter0_d)">
<path d="M80.304 85.752C80.304 86.392 80.048 86.904 79.536 87.288C79.024 87.736 78.416 87.96 77.712 87.96C77.008 87.96 76.4 87.736 75.888 87.288C75.376 86.904 75.12 86.392 75.12 85.752V55.608H68.784C68.144 55.608 67.6 55.416 67.152 55.032C66.768 54.584 66.576 54.04 66.576 53.4C66.576 52.76 66.768 52.216 67.152 51.768C67.6 51.32 68.144 51.096 68.784 51.096H78.096C79.568 51.096 80.304 51.832 80.304 53.304V85.752ZM74.928 36.696C74.352 36.056 74.064 35.288 74.064 34.392C74.064 33.496 74.352 32.728 74.928 32.088C75.504 31.448 76.304 31.128 77.328 31.128C78.352 31.128 79.152 31.448 79.728 32.088C80.368 32.728 80.688 33.496 80.688 34.392C80.688 35.288 80.368 36.056 79.728 36.696C79.152 37.336 78.352 37.656 77.328 37.656C76.304 37.656 75.504 37.336 74.928 36.696ZM96.8948 88.056C94.4628 89.464 93.2468 91.544 93.2468 94.296C93.2468 97.112 94.3988 99.32 96.7028 100.92C99.0708 102.52 102.303 103.32 106.399 103.32C110.495 103.32 114.175 102.616 117.439 101.208C120.703 99.8 122.335 97.88 122.335 95.448C122.335 92.824 120.031 91.256 115.423 90.744C113.823 90.616 108.735 89.976 100.159 88.824C98.7508 88.568 97.6628 88.312 96.8948 88.056ZM117.343 63.864C117.343 61.048 116.383 58.776 114.463 57.048C112.607 55.256 110.175 54.36 107.167 54.36C104.223 54.36 101.791 55.256 99.8708 57.048C98.0148 58.776 97.0868 61.048 97.0868 63.864C97.0868 66.68 98.0148 68.984 99.8708 70.776C101.791 72.504 104.223 73.368 107.167 73.368C110.175 73.368 112.607 72.504 114.463 70.776C116.383 68.984 117.343 66.68 117.343 63.864ZM120.223 37.656C121.247 37.656 121.951 38.2 122.335 39.288C123.231 41.528 123.679 43.544 123.679 45.336C123.679 49.048 122.143 52.184 119.071 54.744C121.375 57.112 122.527 60.28 122.527 64.248C122.527 68.216 121.023 71.48 118.015 74.04C115.071 76.536 111.455 77.784 107.167 77.784C105.247 77.784 103.423 77.528 101.695 77.016C100.223 77.464 98.9108 78.168 97.7588 79.128C96.6708 80.024 96.1268 80.92 96.1268 81.816C96.1268 83.032 97.7268 83.928 100.927 84.504C102.335 84.696 107.423 85.304 116.191 86.328C123.743 87.288 127.519 90.328 127.519 95.448C127.519 99.416 125.247 102.456 120.703 104.568C116.223 106.68 111.423 107.736 106.303 107.736C101.247 107.736 96.9268 106.616 93.3428 104.376C89.8228 102.2 88.0628 99.128 88.0628 95.16C88.0628 91.192 89.7588 88.184 93.1508 86.136C91.7428 85.304 91.0388 83.864 91.0388 81.816C91.0388 79 93.2468 76.728 97.6628 75C93.8868 72.12 91.9988 68.536 91.9988 64.248C91.9988 59.896 93.4068 56.44 96.2228 53.88C99.0388 51.256 102.431 49.944 106.399 49.944C110.431 49.944 113.599 50.68 115.903 52.152C117.631 50.424 118.495 48.216 118.495 45.528C118.495 44.184 118.271 42.936 117.823 41.784C117.055 39.864 117.439 38.584 118.975 37.944C119.423 37.752 119.839 37.656 120.223 37.656ZM133.859 55.608H129.347C128.707 55.608 128.163 55.416 127.715 55.032C127.331 54.584 127.139 54.04 127.139 53.4C127.139 52.76 127.331 52.216 127.715 51.768C128.163 51.32 128.707 51.096 129.347 51.096H134.531C138.499 51.096 140.483 53.272 140.483 57.624C144.323 52.632 149.155 50.136 154.979 50.136C158.435 50.136 161.251 51.032 163.427 52.824C165.667 54.552 166.787 57.112 166.787 60.504V80.664C166.787 81.88 167.651 82.488 169.379 82.488H173.123C173.763 82.488 174.275 82.712 174.659 83.16C175.107 83.608 175.331 84.152 175.331 84.792C175.331 85.432 175.107 85.976 174.659 86.424C174.275 86.808 173.763 87 173.123 87H169.379C164.195 87 161.603 84.92 161.603 80.76V60.504C161.603 58.584 160.995 57.112 159.779 56.088C158.627 55.064 156.995 54.552 154.883 54.552C148.995 54.552 144.323 57.624 140.867 63.768V85.752C140.867 86.392 140.611 86.904 140.099 87.288C139.587 87.736 138.979 87.96 138.275 87.96C137.571 87.96 136.963 87.736 136.451 87.288C135.939 86.904 135.683 86.392 135.683 85.752V57.432C135.683 56.216 135.075 55.608 133.859 55.608ZM208.622 65.88C208.43 62.424 207.406 59.672 205.55 57.624C203.758 55.576 201.134 54.552 197.678 54.552C194.286 54.552 191.438 55.608 189.134 57.72C186.83 59.768 185.39 62.488 184.814 65.88H208.622ZM208.814 77.784C209.262 77.016 209.774 76.632 210.35 76.632C210.926 76.632 211.502 76.792 212.078 77.112C212.654 77.368 213.038 77.816 213.23 78.456C213.486 79.032 213.454 79.576 213.134 80.088C209.87 85.336 204.686 87.96 197.582 87.96C191.95 87.96 187.502 86.168 184.238 82.584C181.038 78.936 179.438 74.36 179.438 68.856C179.438 63.352 181.102 58.872 184.43 55.416C187.758 51.896 192.142 50.136 197.582 50.136C203.022 50.136 207.054 51.768 209.678 55.032C212.366 58.296 213.71 62.648 213.71 68.088C213.71 69.56 212.878 70.296 211.214 70.296L184.622 70.392C184.878 74.36 186.158 77.56 188.462 79.992C190.83 82.36 193.87 83.544 197.582 83.544C202.574 83.544 206.318 81.624 208.814 77.784ZM222.104 83.256V75.48C222.104 74.84 222.36 74.328 222.872 73.944C223.384 73.496 223.992 73.272 224.696 73.272C225.4 73.272 226.008 73.496 226.52 73.944C227.032 74.328 227.288 74.84 227.288 75.48V82.008C230.36 83.032 233.56 83.544 236.888 83.544C244.184 83.544 247.832 81.496 247.832 77.4C247.832 74.328 244.408 72.056 237.56 70.584C237.24 70.52 236.536 70.36 235.448 70.104C234.36 69.848 233.464 69.656 232.76 69.528C232.056 69.336 230.872 68.952 229.208 68.376C227.608 67.736 226.456 67.096 225.752 66.456C223.832 64.728 222.872 62.616 222.872 60.12C222.872 57.56 223.704 55.512 225.368 53.976C227.096 52.376 228.984 51.352 231.032 50.904C233.08 50.392 235.32 50.136 237.752 50.136C242.232 50.136 246.36 51 250.136 52.728C251.288 53.24 251.864 53.944 251.864 54.84V62.232C251.864 62.872 251.608 63.416 251.096 63.864C250.584 64.248 249.976 64.44 249.272 64.44C248.568 64.44 247.96 64.248 247.448 63.864C246.936 63.416 246.68 62.872 246.68 62.232V56.088C244.12 55.064 241.144 54.552 237.752 54.552C231.224 54.552 227.96 56.408 227.96 60.12C227.96 61.464 228.376 62.392 229.208 62.904C230.104 63.416 230.744 63.8 231.128 64.056C231.576 64.312 232.344 64.568 233.432 64.824C234.968 65.208 236.536 65.56 238.136 65.88C239.736 66.2 241.048 66.488 242.072 66.744C243.096 67 244.376 67.448 245.911 68.088C247.512 68.664 248.76 69.336 249.656 70.104C251.896 71.896 253.016 74.232 253.016 77.112C253.016 79.992 252.056 82.296 250.136 84.024C248.28 85.688 246.232 86.744 243.992 87.192C241.816 87.704 239.448 87.96 236.888 87.96C231.832 87.96 227.48 87.128 223.832 85.464C222.68 84.952 222.104 84.216 222.104 83.256ZM268.866 85.752C268.866 86.392 268.61 86.904 268.098 87.288C267.586 87.736 266.978 87.96 266.274 87.96C265.57 87.96 264.962 87.736 264.45 87.288C263.938 86.904 263.682 86.392 263.682 85.752V19.512H257.346C256.706 19.512 256.194 19.32 255.81 18.936C255.362 18.488 255.138 17.944 255.138 17.304C255.138 16.664 255.362 16.12 255.81 15.672C256.194 15.224 256.706 15 257.346 15H266.37C267.01 15 267.586 15.224 268.098 15.672C268.61 16.12 268.866 16.664 268.866 17.304V57.528C272.834 52.472 277.538 49.944 282.978 49.944C286.562 49.944 289.41 50.872 291.522 52.728C293.698 54.52 294.786 57.048 294.786 60.312V80.76C294.786 81.912 295.65 82.488 297.378 82.488H301.122C301.762 82.488 302.274 82.712 302.658 83.16C303.106 83.608 303.33 84.152 303.33 84.792C303.33 85.432 303.106 85.976 302.658 86.424C302.274 86.808 301.762 87 301.122 87H297.378C292.194 87 289.602 84.92 289.602 80.76V60.312C289.602 56.344 287.394 54.36 282.978 54.36C277.09 54.36 272.386 57.496 268.866 63.768V85.752Z" fill="black"/>
</g>
<g filter="url(#filter1_d)">
<path d="M33.184 87.96C31.264 82.712 28.224 74.36 24.064 62.904C19.904 51.448 16.864 43.16 14.944 38.04C13.856 35.288 12.8 33.368 11.776 32.28C10.752 31.192 9.248 30.456 7.264 30.072C7.008 30.008 6.624 29.944 6.112 29.88C5.6 29.752 5.248 29.56 5.056 29.304C4.928 28.984 4.864 28.504 4.864 27.864C4.864 27.096 5.056 26.584 5.44 26.328C5.888 26.072 6.56 25.944 7.456 25.944C12.256 25.944 15.904 26.68 18.4 28.152C20.896 29.624 22.88 32.248 24.352 36.024L38.272 73.464H38.56L51.808 34.968C52.192 33.88 52.384 33.048 52.384 32.472C52.384 31.576 52 31 51.232 30.744C50.528 30.424 49.312 30.264 47.584 30.264H47.008C46.368 30.264 45.92 30.168 45.664 29.976C45.408 29.72 45.248 29.144 45.184 28.248C45.184 27.672 45.312 27.192 45.568 26.808C45.888 26.36 46.304 26.136 46.816 26.136C50.976 26.328 54.464 26.424 57.28 26.424C58.496 26.424 60.832 26.36 64.288 26.232L66.304 26.136C66.88 26.136 67.296 26.36 67.552 26.808C67.872 27.192 68.032 27.672 68.032 28.248C67.968 29.144 67.808 29.72 67.552 29.976C67.296 30.168 66.848 30.264 66.208 30.264C63.456 30.264 61.344 30.712 59.872 31.608C58.464 32.504 57.248 34.232 56.224 36.792C54.304 42.04 51.2 50.552 46.912 62.328C42.688 74.04 39.616 82.584 37.696 87.96H33.184Z" fill="black"/>
</g>
<defs>
<filter id="filter0_d" x="62.576" y="11" width="254.754" height="110.736" filterUnits="userSpaceOnUse" color-interpolation-filters="sRGB">
<feFlood flood-opacity="0" result="BackgroundImageFix"/>
<feColorMatrix in="SourceAlpha" type="matrix" values="0 0 0 0 0 0 0 0 0 0 0 0 0 0 0 0 0 0 127 0"/>
<feOffset dx="5" dy="5"/>
<feGaussianBlur stdDeviation="4.5"/>
<feColorMatrix type="matrix" values="0 0 0 0 0 0 0 0 0 0 0 0 0 0 0 0 0 0 0.25 0"/>
<feBlend mode="normal" in2="BackgroundImageFix" result="effect1_dropShadow"/>
<feBlend mode="normal" in="SourceGraphic" in2="effect1_dropShadow" result="shape"/>
</filter>
<filter id="filter1_d" x="0.863998" y="21.944" width="81.168" height="80.016" filterUnits="userSpaceOnUse" color-interpolation-filters="sRGB">
<feFlood flood-opacity="0" result="BackgroundImageFix"/>
<feColorMatrix in="SourceAlpha" type="matrix" values="0 0 0 0 0 0 0 0 0 0 0 0 0 0 0 0 0 0 127 0"/>
<feOffset dx="5" dy="5"/>
<feGaussianBlur stdDeviation="4.5"/>
<feColorMatrix type="matrix" values="0 0 0 0 0 0 0 0 0 0 0 0 0 0 0 0 0 0 0.25 0"/>
<feBlend mode="normal" in2="BackgroundImageFix" result="effect1_dropShadow"/>
<feBlend mode="normal" in="SourceGraphic" in2="effect1_dropShadow" result="shape"/>
</filter>
</defs>
</svg>
