<svg width="48" height="48" viewBox="0 0 48 48" fill="none" xmlns="http://www.w3.org/2000/svg">
<path d="M24 0C10.771 0 0 10.7613 0 24C0 37.229 10.771 48 24 48C37.229 48 48 37.229 48 24C48 10.7613 37.229 0 24 0ZM2.41935 24C2.41935 20.8742 3.0871 17.9032 4.2871 15.2226L14.5839 43.4226C7.38387 39.9194 2.41935 32.5355 2.41935 24ZM24 45.5806C21.8806 45.5806 19.8387 45.271 17.9032 44.7L24.3774 25.8871L31.0065 44.0613C31.0548 44.1677 31.1032 44.2645 31.1613 44.3613C28.9258 45.1452 26.5161 45.5806 24 45.5806V45.5806ZM26.971 13.8871C28.2677 13.8194 29.4387 13.6839 29.4387 13.6839C30.6 13.5484 30.4645 11.8355 29.3032 11.9032C29.3032 11.9032 25.8097 12.1742 23.5548 12.1742C21.4355 12.1742 17.8742 11.9032 17.8742 11.9032C16.7129 11.8355 16.5774 13.6161 17.7387 13.6839C17.7387 13.6839 18.8419 13.8194 20.0032 13.8871L23.3613 23.1L18.6387 37.2581L10.7806 13.8871C12.0774 13.8194 13.2484 13.6839 13.2484 13.6839C14.4097 13.5484 14.2742 11.8355 13.1129 11.9032C13.1129 11.9032 9.61935 12.1742 7.36452 12.1742C6.95806 12.1742 6.48387 12.1645 5.97097 12.1452C9.83226 6.29032 16.4613 2.41935 24 2.41935C29.6129 2.41935 34.7323 4.56774 38.5742 8.08064C38.4774 8.07097 38.3903 8.06129 38.2935 8.06129C36.1742 8.06129 34.6742 9.90968 34.6742 11.8935C34.6742 13.6742 35.7 15.1742 36.7935 16.9548C37.6161 18.3871 38.5742 20.2355 38.5742 22.9065C38.5742 24.7548 37.8677 26.8935 36.929 29.8839L34.7806 37.0742L26.971 13.8871V13.8871ZM34.8484 42.6484L41.4387 23.5935C42.6677 20.5161 43.0839 18.0581 43.0839 15.8613C43.0839 15.0677 43.0355 14.3323 42.9387 13.6452C44.6226 16.7226 45.5806 20.2452 45.5806 24C45.5806 31.9645 41.2645 38.9129 34.8484 42.6484V42.6484Z" fill="black"/>
</svg>
